<svg width="130" height="50" viewBox="0 0 130 50" fill="none" xmlns="http://www.w3.org/2000/svg">
<rect width="130" height="50" rx="25" fill="#514EF3"/>
<path d="M21.9787 30H20.348L24.0121 19.8182H25.7869L29.451 30H27.8203L24.9418 21.6676H24.8622L21.9787 30ZM22.2521 26.0128H27.5419V27.3054H22.2521V26.0128ZM33.5376 30.1491C32.9212 30.1491 32.371 29.9917 31.8871 29.6768C31.4065 29.3587 31.0286 28.9062 30.7536 28.3196C30.4818 27.7296 30.3459 27.022 30.3459 26.1967C30.3459 25.3714 30.4834 24.6655 30.7585 24.0788C31.0369 23.4922 31.4181 23.0431 31.902 22.7315C32.3859 22.42 32.9344 22.2642 33.5476 22.2642C34.0215 22.2642 34.4027 22.3438 34.6911 22.5028C34.9827 22.6586 35.2081 22.8409 35.3672 23.0497C35.5296 23.2585 35.6555 23.4425 35.745 23.6016H35.8345V19.8182H37.321V30H35.8693V28.8118H35.745C35.6555 28.9742 35.5263 29.1598 35.3572 29.3686C35.1915 29.5774 34.9628 29.7597 34.6712 29.9155C34.3795 30.0713 34.0017 30.1491 33.5376 30.1491ZM33.8658 28.8814C34.2933 28.8814 34.6546 28.7687 34.9496 28.5433C35.2479 28.3146 35.4732 27.9981 35.6257 27.5938C35.7815 27.1894 35.8594 26.7187 35.8594 26.1818C35.8594 25.6515 35.7831 25.1875 35.6307 24.7898C35.4782 24.392 35.2545 24.0821 34.9595 23.8601C34.6645 23.638 34.3 23.527 33.8658 23.527C33.4183 23.527 33.0455 23.643 32.7472 23.875C32.4489 24.107 32.2235 24.4235 32.071 24.8246C31.9219 25.2256 31.8473 25.678 31.8473 26.1818C31.8473 26.6922 31.9235 27.1513 32.076 27.5589C32.2285 27.9666 32.4538 28.2898 32.7521 28.5284C33.0537 28.7637 33.425 28.8814 33.8658 28.8814ZM42.3013 30.1491C41.6848 30.1491 41.1346 29.9917 40.6507 29.6768C40.1702 29.3587 39.7923 28.9062 39.5172 28.3196C39.2454 27.7296 39.1096 27.022 39.1096 26.1967C39.1096 25.3714 39.2471 24.6655 39.5222 24.0788C39.8006 23.4922 40.1818 23.0431 40.6657 22.7315C41.1496 22.42 41.6981 22.2642 42.3113 22.2642C42.7852 22.2642 43.1664 22.3438 43.4547 22.5028C43.7464 22.6586 43.9718 22.8409 44.1309 23.0497C44.2933 23.2585 44.4192 23.4425 44.5087 23.6016H44.5982V19.8182H46.0847V30H44.633V28.8118H44.5087C44.4192 28.9742 44.29 29.1598 44.1209 29.3686C43.9552 29.5774 43.7265 29.7597 43.4348 29.9155C43.1432 30.0713 42.7653 30.1491 42.3013 30.1491ZM42.6294 28.8814C43.057 28.8814 43.4183 28.7687 43.7132 28.5433C44.0115 28.3146 44.2369 27.9981 44.3894 27.5938C44.5452 27.1894 44.623 26.7187 44.623 26.1818C44.623 25.6515 44.5468 25.1875 44.3944 24.7898C44.2419 24.392 44.0182 24.0821 43.7232 23.8601C43.4282 23.638 43.0636 23.527 42.6294 23.527C42.182 23.527 41.8091 23.643 41.5108 23.875C41.2125 24.107 40.9872 24.4235 40.8347 24.8246C40.6855 25.2256 40.611 25.678 40.611 26.1818C40.611 26.6922 40.6872 27.1513 40.8397 27.5589C40.9921 27.9666 41.2175 28.2898 41.5158 28.5284C41.8174 28.7637 42.1886 28.8814 42.6294 28.8814ZM60.2488 19.8182V30H58.8368L53.6614 22.5327H53.5669V30H52.0307V19.8182H53.4526L58.633 27.2955H58.7275V19.8182H60.2488ZM65.6616 30.1541C64.9092 30.1541 64.2612 29.9934 63.7177 29.6719C63.1774 29.3471 62.7598 28.8913 62.4648 28.3047C62.1732 27.7147 62.0273 27.0237 62.0273 26.2315C62.0273 25.4493 62.1732 24.7599 62.4648 24.1634C62.7598 23.5668 63.1708 23.1011 63.6978 22.7663C64.2281 22.4316 64.8479 22.2642 65.5572 22.2642C65.988 22.2642 66.4057 22.3355 66.81 22.478C67.2144 22.6205 67.5773 22.8442 67.8988 23.1491C68.2203 23.4541 68.4738 23.8501 68.6594 24.3374C68.8451 24.8213 68.9379 25.4096 68.9379 26.1023V26.6293H62.8675V25.5156H67.4812C67.4812 25.1245 67.4016 24.7782 67.2425 24.4766C67.0835 24.1716 66.8597 23.9313 66.5714 23.7557C66.2863 23.58 65.9516 23.4922 65.5671 23.4922C65.1495 23.4922 64.7849 23.5949 64.4734 23.8004C64.1651 24.0026 63.9265 24.2678 63.7575 24.5959C63.5917 24.9207 63.5089 25.2737 63.5089 25.6548V26.5249C63.5089 27.0353 63.5984 27.4695 63.7773 27.8274C63.9596 28.1854 64.2132 28.4588 64.538 28.6477C64.8628 28.8333 65.2423 28.9261 65.6765 28.9261C65.9582 28.9261 66.2151 28.8864 66.4471 28.8068C66.6791 28.724 66.8796 28.6013 67.0487 28.4389C67.2177 28.2765 67.3469 28.076 67.4364 27.8374L68.8434 28.0909C68.7307 28.5052 68.5285 28.8681 68.2369 29.1797C67.9485 29.4879 67.5856 29.7282 67.1481 29.9006C66.7139 30.0696 66.2184 30.1541 65.6616 30.1541ZM72.229 30L69.9819 22.3636H71.5181L73.0146 27.9716H73.0891L74.5906 22.3636H76.1268L77.6183 27.9467H77.6928L79.1793 22.3636H80.7156L78.4734 30H76.957L75.4059 24.4865H75.2915L73.7404 30H72.229Z" fill="white"/>
<path d="M109 25.625H99C98.6583 25.625 98.375 25.3417 98.375 25C98.375 24.6583 98.6583 24.375 99 24.375H109C109.342 24.375 109.625 24.6583 109.625 25C109.625 25.3417 109.342 25.625 109 25.625Z" fill="#ECECFE"/>
<path d="M104 30.625C103.658 30.625 103.375 30.3417 103.375 30V20C103.375 19.6583 103.658 19.375 104 19.375C104.342 19.375 104.625 19.6583 104.625 20V30C104.625 30.3417 104.342 30.625 104 30.625Z" fill="#ECECFE"/>
</svg>
