<svg width="18" height="18" viewBox="0 0 18 18" fill="none" xmlns="http://www.w3.org/2000/svg">
<path d="M15.475 10.4582H12.1083C10.4333 10.4582 9.625 9.68317 9.625 8.08317V2.4165C9.625 0.816504 10.4417 0.0415039 12.1083 0.0415039H15.475C17.15 0.0415039 17.9583 0.816504 17.9583 2.4165V8.08317C17.9583 9.68317 17.1417 10.4582 15.475 10.4582ZM12.1083 1.2915C11.05 1.2915 10.875 1.57484 10.875 2.4165V8.08317C10.875 8.92484 11.05 9.20817 12.1083 9.20817H15.475C16.5333 9.20817 16.7083 8.92484 16.7083 8.08317V2.4165C16.7083 1.57484 16.5333 1.2915 15.475 1.2915H12.1083Z" fill="#7E92A2"/>
<path d="M15.475 17.458H12.1083C11.3384 17.458 10.8662 17.2791 10.5842 17.0093C10.3066 16.7436 10.125 16.3046 10.125 15.583V14.083C10.125 13.3628 10.308 12.9234 10.5869 12.6572C10.8704 12.3866 11.3432 12.208 12.1083 12.208H15.475C16.2449 12.208 16.7171 12.3869 16.9991 12.6567C17.2768 12.9225 17.4583 13.3614 17.4583 14.083V15.583C17.4583 16.3032 17.2754 16.7426 16.9964 17.0088C16.713 17.2794 16.2401 17.458 15.475 17.458ZM12.1083 12.458C11.5806 12.458 11.0756 12.5169 10.7412 12.8513C10.4031 13.1895 10.375 13.6759 10.375 14.083V15.583C10.375 15.9901 10.4031 16.4765 10.7412 16.8147C11.0756 17.1491 11.5806 17.208 12.1083 17.208H15.475C16.0027 17.208 16.5077 17.1491 16.8421 16.8147C17.1802 16.4765 17.2083 15.9901 17.2083 15.583V14.083C17.2083 13.6759 17.1802 13.1895 16.8421 12.8513C16.5077 12.5169 16.0027 12.458 15.475 12.458H12.1083Z" stroke="#7E92A2"/>
<path d="M5.89163 17.9582H2.52496C0.849959 17.9582 0.041626 17.1832 0.041626 15.5832V9.9165C0.041626 8.3165 0.858293 7.5415 2.52496 7.5415H5.89163C7.56663 7.5415 8.37496 8.3165 8.37496 9.9165V15.5832C8.37496 17.1832 7.55829 17.9582 5.89163 17.9582ZM2.52496 8.7915C1.46663 8.7915 1.29163 9.07484 1.29163 9.9165V15.5832C1.29163 16.4248 1.46663 16.7082 2.52496 16.7082H5.89163C6.94996 16.7082 7.12496 16.4248 7.12496 15.5832V9.9165C7.12496 9.07484 6.94996 8.7915 5.89163 8.7915H2.52496Z" fill="#7E92A2"/>
<path d="M5.89163 6.2915H2.52496C0.849959 6.2915 0.041626 5.5165 0.041626 3.9165V2.4165C0.041626 0.816504 0.858293 0.0415039 2.52496 0.0415039H5.89163C7.56663 0.0415039 8.37496 0.816504 8.37496 2.4165V3.9165C8.37496 5.5165 7.55829 6.2915 5.89163 6.2915ZM2.52496 1.2915C1.46663 1.2915 1.29163 1.57484 1.29163 2.4165V3.9165C1.29163 4.75817 1.46663 5.0415 2.52496 5.0415H5.89163C6.94996 5.0415 7.12496 4.75817 7.12496 3.9165V2.4165C7.12496 1.57484 6.94996 1.2915 5.89163 1.2915H2.52496Z" fill="#7E92A2"/>
</svg>
