<svg width="80" height="80" viewBox="0 0 80 80" fill="none" xmlns="http://www.w3.org/2000/svg">
<rect width="80" height="80" rx="40" fill="url(#paint0_linear_231_1476)"/>
<path d="M56.018 39.675C56.018 39.172 55.898 38.7 55.697 38.271C54.356 33.945 48.078 34.261 39.148 34.05C37.655 34.015 38.509 32.252 39.033 28.382C39.374 25.865 37.751 22 35.023 22C30.525 22 34.852 25.548 30.875 34.322C28.75 39.01 24 36.384 24 41.093V51.812C24 53.645 24.18 55.407 26.758 55.697C29.257 55.978 28.695 57.759 32.3 57.759H50.344C52.182 57.759 53.677 56.263 53.677 54.425C53.677 53.663 53.41 52.969 52.979 52.407C53.999 51.836 54.699 50.758 54.699 49.508C54.699 48.748 54.433 48.054 54.003 47.493C55.026 46.923 55.728 45.844 55.728 44.592C55.728 43.683 55.36 42.859 54.767 42.256C55.524 41.645 56.018 40.721 56.018 39.675Z" fill="#FFC357"/>
<path opacity="0.1" d="M44.082 43.0078H52.686C53.856 43.0078 54.954 42.3818 55.552 41.3748C55.798 40.9598 55.661 40.4228 55.245 40.1758C54.83 39.9288 54.293 40.0678 54.046 40.4828C53.763 40.9618 53.24 41.2578 52.685 41.2578H43.875C43.002 41.2578 42.292 40.5478 42.292 39.6748C42.292 38.8018 43.002 38.0918 43.875 38.0918H49.762C50.245 38.0918 50.637 37.6998 50.637 37.2168C50.637 36.7338 50.245 36.3418 49.762 36.3418H43.874C42.036 36.3418 40.541 37.8368 40.541 39.6748C40.541 40.6998 41.016 41.6068 41.746 42.2188C41.131 42.8238 40.748 43.6638 40.748 44.5918C40.748 45.6198 41.226 46.5298 41.96 47.1408C41.349 47.7448 40.97 48.5818 40.97 49.5078C40.97 50.6278 41.529 51.6158 42.379 52.2208C41.855 52.8098 41.527 53.5768 41.527 54.4248C41.527 56.2628 43.022 57.7578 44.86 57.7578H50.344C51.514 57.7578 52.613 57.1328 53.211 56.1258C53.458 55.7108 53.321 55.1738 52.906 54.9268C52.49 54.6818 51.953 54.8168 51.707 55.2318C51.422 55.7108 50.899 56.0078 50.344 56.0078H44.86C43.987 56.0078 43.277 55.2978 43.277 54.4248C43.277 53.5518 43.987 52.8418 44.86 52.8418H51.366C52.536 52.8418 53.636 52.2158 54.233 51.2088C54.48 50.7928 54.343 50.2558 53.928 50.0098C53.509 49.7588 52.974 49.8998 52.729 50.3148C52.44 50.8018 51.93 51.0918 51.366 51.0918H44.303C43.43 51.0918 42.72 50.3808 42.72 49.5078C42.72 48.6348 43.43 47.9248 44.303 47.9248H52.394C53.564 47.9248 54.663 47.2998 55.261 46.2928C55.508 45.8778 55.371 45.3408 54.956 45.0938C54.539 44.8478 54.003 44.9838 53.757 45.3988C53.468 45.8848 52.958 46.1748 52.394 46.1748H44.082C43.209 46.1748 42.499 45.4648 42.499 44.5918C42.499 43.7188 43.208 43.0078 44.082 43.0078Z" fill="black"/>
<defs>
<linearGradient id="paint0_linear_231_1476" x1="40" y1="0" x2="40" y2="80" gradientUnits="userSpaceOnUse">
<stop stop-color="#FFC357" stop-opacity="0.25"/>
<stop offset="1" stop-color="#FFC357" stop-opacity="0"/>
</linearGradient>
</defs>
</svg>
