<svg width="32" height="32" viewBox="0 0 32 32" fill="none" xmlns="http://www.w3.org/2000/svg">
<path d="M12 2.66663C8.50671 2.66663 5.66671 5.50663 5.66671 8.99996C5.66671 12.4266 8.34671 15.2 11.84 15.32C11.9467 15.3066 12.0534 15.3066 12.1334 15.32C12.16 15.32 12.1734 15.32 12.2 15.32C12.2134 15.32 12.2134 15.32 12.2267 15.32C15.64 15.2 18.32 12.4266 18.3334 8.99996C18.3334 5.50663 15.4934 2.66663 12 2.66663Z" fill="#7E92A2"/>
<path d="M18.7734 18.8666C15.0534 16.3866 8.98671 16.3866 5.24004 18.8666C3.54671 20 2.61337 21.5333 2.61337 23.1733C2.61337 24.8133 3.54671 26.3333 5.22671 27.4533C7.09337 28.7066 9.54671 29.3333 12 29.3333C14.4534 29.3333 16.9067 28.7066 18.7734 27.4533C20.4534 26.32 21.3867 24.8 21.3867 23.1466C21.3734 21.5066 20.4534 19.9866 18.7734 18.8666Z" fill="#7E92A2"/>
<path d="M26.6534 9.78663C26.8667 12.3733 25.0267 14.64 22.48 14.9466C22.4667 14.9466 22.4667 14.9466 22.4534 14.9466H22.4134C22.3334 14.9466 22.2534 14.9466 22.1867 14.9733C20.8934 15.04 19.7067 14.6266 18.8134 13.8666C20.1867 12.64 20.9734 10.8 20.8134 8.79996C20.72 7.71996 20.3467 6.73329 19.7867 5.89329C20.2934 5.63996 20.88 5.47996 21.48 5.42663C24.0934 5.19996 26.4267 7.14663 26.6534 9.78663Z" fill="#7E92A2"/>
<path d="M29.32 22.12C29.2134 23.4133 28.3867 24.5333 27 25.2933C25.6667 26.0266 23.9867 26.3733 22.32 26.3333C23.28 25.4666 23.84 24.3866 23.9467 23.24C24.08 21.5866 23.2934 20 21.72 18.7333C20.8267 18.0266 19.7867 17.4666 18.6534 17.0533C21.6 16.2 25.3067 16.7733 27.5867 18.6133C28.8134 19.6 29.44 20.84 29.32 22.12Z" fill="#7E92A2"/>
</svg>
